<svg width="150" height="150" viewBox="0 0 150 150" fill="none" xmlns="http://www.w3.org/2000/svg">
<path d="M119.962 65.2743H116.316C113.616 65.2743 111.152 63.6764 110.139 61.1797L110.038 60.9134C108.958 58.3169 109.565 55.3542 111.557 53.3568L113.954 50.96C114.932 49.9946 114.932 48.4633 113.954 47.498L103.557 37.245C102.578 36.2796 101.025 36.2796 100.046 37.245L97.6498 39.6418C95.6582 41.6058 92.6202 42.205 89.9873 41.1398H89.8861C87.2532 40.0745 85.5316 37.5446 85.5316 34.7483V31.3528C85.5316 29.988 84.4177 28.9227 83.0675 28.9227H68.3839C67 28.9227 65.9198 30.0213 65.9198 31.3528V34.948C65.9198 37.6111 64.2996 40.0412 61.7679 41.0399L61.4979 41.1398C58.865 42.205 55.8607 41.6058 53.8354 39.6418L51.405 37.2783C50.4261 36.3129 48.8734 36.3129 47.8945 37.2783L37.5316 47.498C36.5527 48.4633 36.5527 49.9946 37.5316 50.96L39.962 53.3568C41.9536 55.3209 42.5612 58.3169 41.481 60.9134L41.3797 61.1797C40.3333 63.6431 37.9029 65.2743 35.2025 65.2743H31.5232C30.1392 65.2743 29.0591 66.3728 29.0591 67.7043V82.185C29.0591 83.5499 30.173 84.6151 31.5232 84.6151H35.1688C37.8692 84.6151 40.3333 86.213 41.346 88.7097L41.4472 88.976C42.5274 91.5725 41.9198 94.5352 39.9283 96.5326L37.4979 98.9294C36.519 99.8948 36.519 101.426 37.4979 102.391L47.8945 112.644C48.8734 113.61 50.4261 113.61 51.405 112.644L53.8354 110.248C55.827 108.284 58.865 107.684 61.4979 108.75L61.5991 108.783C64.232 109.848 65.9536 112.378 65.9536 115.174V118.57C65.9536 119.935 67.0675 121 68.4177 121H83.1013C84.4852 121 85.5654 119.901 85.5654 118.57V115.174C85.5654 112.378 87.2869 109.848 89.9198 108.783L90.0211 108.75C92.654 107.684 95.6582 108.284 97.6835 110.248L100.114 112.644C101.093 113.61 102.646 113.61 103.624 112.644L114.021 102.391C115 101.426 115 99.8948 114.021 98.9294L111.591 96.5326C109.599 94.5685 108.992 91.5725 110.072 88.976L110.173 88.7097C111.219 86.2463 113.65 84.6151 116.35 84.6151H119.996C121.38 84.6151 122.46 83.5166 122.46 82.185V67.7043C122.46 66.3728 121.346 65.2743 119.962 65.2743ZM75.7426 90.0079C67.3038 90.0079 60.4852 83.2836 60.4852 74.9613C60.4852 66.6391 67.3038 59.9147 75.7426 59.9147C84.1814 59.9147 91 66.6391 91 74.9613C91 83.2503 84.1814 90.0079 75.7426 90.0079Z" fill="#B5A7FA"/>
</svg>
