<svg width="150" height="150" viewBox="0 0 150 150" fill="none" xmlns="http://www.w3.org/2000/svg">
<path d="M75.5504 120.989C102.364 120.989 124.101 99.2975 124.101 72.5397C124.101 45.7818 102.364 24.0902 75.5504 24.0902C48.7368 24.0902 27 45.7818 27 72.5397C27 99.2975 48.7368 120.989 75.5504 120.989Z" fill="#CFC6FF"/>
<path d="M75.5 113.989C98.4198 113.989 117 95.409 117 72.4891C117 49.5693 98.4198 30.9891 75.5 30.9891C52.5802 30.9891 34 49.5693 34 72.4891C34 95.409 52.5802 113.989 75.5 113.989Z" fill="#B5A7FA"/>
<path d="M87.8869 57.8441C84.7116 55.2875 81.5723 53.7392 78.1444 53.1991V69.0788C87.9591 71.2753 92.0726 74.9842 92.0726 81.5737C92.0726 88.5233 86.4075 93.2404 78.3248 93.7445V100.046H74.2113V93.6005C68.474 93.0964 63.4945 90.8279 58.9841 86.975L61.8707 83.1221C65.7317 86.5789 69.5565 88.7034 74.3917 89.3155V73.1477C64.8657 70.9152 60.68 67.4584 60.68 60.6888V60.6168C60.68 53.9912 66.2729 49.0941 74.2113 48.698V44.9891H78.3248V48.842C83.16 49.3462 86.8405 51.1106 90.6293 53.9912L87.8869 57.8441ZM74.4278 68.2146V53.019C68.9431 53.2711 65.6595 56.3678 65.6595 60.2927C65.6595 63.9656 67.3193 66.3421 74.4278 68.2146ZM78.1444 74.0119V89.5316C83.7012 89.2075 87.0931 86.1828 87.0931 82.0058V81.9338C87.1292 78.1169 85.2528 75.8844 78.1444 74.0119Z" fill="white"/>
<path d="M118.54 100.244C118.054 105.705 113.685 110.066 108.212 110.55C108.167 110.55 108.167 110.638 108.212 110.638C113.685 111.123 118.054 115.483 118.54 120.945C118.54 120.989 118.628 120.989 118.628 120.945C119.113 115.483 123.483 111.123 128.956 110.638C129 110.638 129 110.55 128.956 110.55C123.483 110.066 119.113 105.705 118.628 100.244C118.628 100.2 118.54 100.2 118.54 100.244Z" fill="#E5E0FF"/>
<path d="M34.9005 23.033C34.5474 27.2173 31.193 30.5207 27.0441 30.873C27 30.873 27 30.9611 27.0441 30.9611C31.2371 31.3135 34.5474 34.6609 34.9005 38.8011C34.9005 38.8452 34.9446 38.8452 34.9888 38.8011C35.3419 34.6169 38.6962 31.3135 42.8451 30.9611C42.8892 30.9611 42.8892 30.9171 42.8451 30.873C38.6521 30.5207 35.3419 27.1733 34.9888 23.033C34.9888 22.989 34.9005 22.989 34.9005 23.033Z" fill="#E5E0FF"/>
</svg>
