<svg width="150" height="150" viewBox="0 0 150 150" fill="none" xmlns="http://www.w3.org/2000/svg">
<g clip-path="url(#clip0)">
<path d="M113.106 88.4681H33.8723V32.3712C33.8723 29.9428 35.7355 28 38.0646 28H108.914C111.243 28 113.106 29.9428 113.106 32.3712V88.4681Z" fill="#B5A7FA"/>
<path d="M33.8723 82.5698L48.6303 62.2647L66.1525 87.646C66.1525 87.646 92.5295 42.1947 92.9512 42.8057C93.3728 43.4167 113.612 86.518 113.612 86.518V103.721C113.612 106.071 111.738 107.951 109.396 107.951H38.0889C35.7463 107.951 33.8723 106.071 33.8723 103.721V82.5698Z" fill="#E5E0FF"/>
<path d="M65.0749 52.0183C68.9303 52.0183 72.0557 48.8828 72.0557 45.0149C72.0557 41.147 68.9303 38.0115 65.0749 38.0115C61.2196 38.0115 58.0942 41.147 58.0942 45.0149C58.0942 48.8828 61.2196 52.0183 65.0749 52.0183Z" fill="white"/>
</g>
<g clip-path="url(#clip1)">
<path d="M83.9149 111.507L84.0084 124.788C84.0084 125.627 85.0375 126.28 85.7859 125.907L97.7604 120.082L83.9149 111.507Z" fill="#B5A7FA"/>
<path d="M120.724 52.3413L84.8352 110.061L98.673 118.601L134.562 60.8813L120.724 52.3413Z" fill="#CFC6FF"/>
<path d="M134.245 45.8925C130.41 43.5158 125.405 44.7275 123.019 48.5022L121.616 50.739L135.461 59.2671L136.865 57.0302C139.25 53.2555 138.081 48.2692 134.245 45.8925Z" fill="#B5A7FA"/>
</g>
<defs>
<clipPath id="clip0">
<rect width="99.0426" height="98.0001" fill="white" transform="translate(33.8723 28)"/>
</clipPath>
<clipPath id="clip1">
<rect width="54.2128" height="81.3192" fill="white" transform="translate(83.9149 44.6808)"/>
</clipPath>
</defs>
</svg>
